<?xml version="1.0" encoding="UTF-8"?>
<svg id="Layer_2" xmlns="http://www.w3.org/2000/svg" version="1.1" viewBox="0 0 600 101.1">
  <!-- Generator: Adobe Illustrator 29.1.0, SVG Export Plug-In . SVG Version: 2.1.0 Build 142)  -->
  <defs>
    <style>
      .st0 {
        fill: #e6e6ff;
      }

      .st1 {
        fill: #fff;
      }

      .st2 {
        fill: none;
      }

      .st3 {
        fill: #f0f0ff;
      }
    </style>
  </defs>
  <g id="Layer_1-2">
    <g>
      <path class="st1" d="M173.2,72.2c-4.8-2.6-8.5-6.1-11.2-10.6s-4.1-9.7-4.1-15.4,1.4-10.8,4.1-15.4,6.5-8.1,11.2-10.6,10.1-3.8,16-3.8,9.5.9,13.6,2.6c4,1.7,7.4,4.2,10.1,7.5,0,0,0,.2,0,.2l-8.3,7.7c0,0-.2,0-.2,0-3.9-4.4-8.7-6.6-14.4-6.6s-6.8.8-9.6,2.4c-2.8,1.6-5,3.8-6.6,6.6s-2.4,6-2.4,9.6.8,6.8,2.4,9.6,3.8,5,6.6,6.6c2.8,1.6,6,2.3,9.6,2.3,5.7,0,10.5-2.2,14.4-6.7,0,0,.2,0,.2,0l8.3,7.7c0,0,0,.2,0,.2-2.7,3.3-6.1,5.8-10.1,7.6-4.1,1.8-8.6,2.6-13.6,2.6s-11.2-1.3-16-3.8h0Z"/>
      <path class="st1" d="M225.2,71.7c-2.8-2.7-4.2-6.4-4.2-11.3V14c0,0,0-.2.2-.2h12.5c0,0,.2,0,.2.2v45.6c0,1.9.5,3.3,1.4,4.3s2.3,1.5,4.1,1.5,1.3,0,2-.2c.6-.1,1-.3,1.4-.5s.2,0,.2.1l.6,9.6c0,0,0,.1-.1.2-2.1.7-4.3,1-6.6,1-5,0-8.9-1.3-11.7-4h0Z"/>
      <path class="st1" d="M257.7,72.7c-3.7-1.9-6.6-4.7-8.7-8.1-2.1-3.5-3.1-7.4-3.1-11.8s1-8.3,3.1-11.8c2.1-3.5,5-6.2,8.7-8.1s7.9-2.9,12.6-2.9,8.9,1,12.5,2.9,6.6,4.7,8.7,8.1,3.1,7.4,3.1,11.8-1,8.3-3.1,11.8-5,6.2-8.7,8.1c-3.7,1.9-7.9,2.9-12.5,2.9s-8.9-1-12.6-2.9ZM278.4,61.8c2.1-2.2,3.2-5.2,3.2-9s-1.1-6.7-3.2-9c-2.1-2.2-4.8-3.3-8.1-3.3s-6,1.1-8.2,3.3-3.2,5.2-3.2,9,1.1,6.7,3.2,9c2.1,2.2,4.9,3.3,8.2,3.3s6-1.1,8.1-3.3Z"/>
      <path class="st1" d="M347.9,30.8v44c0,0,0,.2-.2.2h-11.9c0,0-.2,0-.2-.2v-4.7c0-.2-.2-.2-.3-.1-1.6,1.8-3.6,3.1-5.8,4.1-2.4,1-4.9,1.5-7.7,1.5-5.8,0-10.5-1.7-13.9-5-3.4-3.3-5.1-8.3-5.1-14.9v-24.9c0,0,0-.2.2-.2h12.5c0,0,.2,0,.2.2v23c0,7.2,3,10.7,9,10.7s5.5-1,7.4-3c1.9-2,2.8-5,2.8-9v-21.8c0,0,0-.2.2-.2h12.5c0,0,.2,0,.2.2h0Z"/>
      <path class="st1" d="M405,14v60.9c0,0,0,.2-.2.2h-12c0,0-.2,0-.2-.2v-4.5c0-.2-.2-.2-.3,0-3.2,3.6-7.7,5.4-13.6,5.4s-8-.9-11.3-2.8-6-4.5-8-8c-1.9-3.5-2.9-7.5-2.9-12s1-8.6,2.9-12c1.9-3.5,4.6-6.1,8-8,3.4-1.9,7.2-2.8,11.3-2.8s9.8,1.7,13,5.1c.1.1.3,0,.3-.1V14c0,0,0-.2.2-.2h12.5c0,0,.2,0,.2.2h0ZM389.2,61.8c2.1-2.2,3.2-5.2,3.2-9s-1.1-6.7-3.2-9c-2.1-2.2-4.8-3.3-8.1-3.3s-6,1.1-8.2,3.3-3.2,5.2-3.2,9,1.1,6.7,3.2,9c2.1,2.2,4.9,3.3,8.2,3.3s5.9-1.1,8.1-3.3Z"/>
      <path class="st1" d="M454.1,74.9l-13.8-19.8c0,0-.2,0-.3,0l-13.5,19.8s0,0-.1,0h-14.9c-.1,0-.2-.2-.1-.3l21.1-29c0,0,0-.1,0-.2l-20-28c0-.1,0-.3.1-.3h14.8s.1,0,.1,0l13.1,18.5c0,0,.2,0,.3,0l12.9-18.5s0,0,.1,0h14c.1,0,.2.1.1.3l-19.9,27.5c0,0,0,.1,0,.2l21.3,29.5c0,.1,0,.3-.1.3h-15s-.1,0-.1,0h0Z"/>
      <path class="st1" d="M512.4,32.8c3.4,1.9,6,4.6,8,8,1.9,3.4,2.9,7.4,2.9,12s-1,8.6-2.9,12c-1.9,3.4-4.6,6.1-8,8s-7.1,2.8-11.3,2.8-9.9-1.7-13.1-5.1c-.1-.1-.3,0-.3.1v20.1c0,0,0,.2-.2.2h-12.5c0,0-.2,0-.2-.2V30.8c0,0,0-.2.2-.2h12c0,0,.2,0,.2.2v4.5c0,.2.2.2.3,0,3.2-3.6,7.7-5.5,13.7-5.5s7.9,1,11.3,2.8h0ZM507,61.8c2.1-2.2,3.2-5.2,3.2-9s-1.1-6.7-3.2-9c-2.1-2.2-4.8-3.3-8.1-3.3s-6,1.1-8.1,3.3c-2.1,2.2-3.2,5.2-3.2,9s1.1,6.7,3.2,9c2.1,2.2,4.8,3.3,8.1,3.3s6-1.1,8.1-3.3Z"/>
      <path class="st1" d="M532.5,22.4c-1.5-1.4-2.2-3.1-2.2-5.1s.7-3.7,2.2-5.1c1.5-1.4,3.4-2.1,5.8-2.1s3.8.5,5.2,1.5c2.2,1.6,3.2,4.5,2.6,7.2-.3,1.4-1,2.5-2,3.5-1.5,1.4-3.4,2.1-5.8,2.1s-4.3-.7-5.8-2.1h0ZM532,30.6h12.5c0,0,.2,0,.2.2v44c0,0,0,.2-.2.2h-12.5c0,0-.2,0-.2-.2V30.8c0,0,0-.2.2-.2Z"/>
      <path class="st1" d="M585.1,64.3c1.7-.7,3.4-1.7,4.9-3.1,0,0,.2,0,.2,0l6.6,7.2c0,0,0,.2,0,.2-4.2,4.7-10.2,7.1-18.2,7.1s-9.4-1-13.3-2.9c-3.8-1.9-6.8-4.7-8.9-8.1-2.1-3.5-3.1-7.4-3.1-11.8s1-8.3,3.1-11.8c2.1-3.5,4.9-6.2,8.5-8.2s7.7-2.9,12.2-2.9,8.1.9,11.5,2.7c3.5,1.8,6.2,4.4,8.3,7.8,2,3.3,3.1,7.3,3.1,11.9,0,0,0,.2-.1.2l-32.5,6.3c0,0-.2.1-.1.2.9,2.1,2.4,3.7,4.3,4.8,2,1.1,4.5,1.7,7.4,1.7s4.4-.3,6.1-1h0ZM569.2,42.8c-2,2-3.1,4.9-3.2,8.5,0,0,0,.2.2.2l21.2-4.1c0,0,.2-.1.1-.2-.6-2.2-1.8-4-3.7-5.3-1.9-1.4-4.1-2.1-6.8-2.1s-5.9,1-7.9,3.1h0Z"/>
    </g>
    <g>
      <g>
        <g>
          <path class="st1" d="M56.1,88.9v5.5c0,.2.2.4.4.4h22c.2,0,.4-.2.4-.4v-5.5c0-.2-.2-.4-.4-.4h-22c-.2,0-.4.2-.4.4ZM72.2,93.1c-.8,0-1.4-.6-1.4-1.4s.6-1.4,1.4-1.4,1.4.6,1.4,1.4-.6,1.4-1.4,1.4ZM75.8,93.1c-.8,0-1.4-.6-1.4-1.4s.6-1.4,1.4-1.4,1.4.6,1.4,1.4-.6,1.4-1.4,1.4Z"/>
          <path class="st1" d="M56.1,72.4v5.5c0,.2.2.4.4.4h22c.2,0,.4-.2.4-.4v-5.5c0-.2-.2-.4-.4-.4h-22c-.2,0,.4.2-.4.4ZM65.8,76.5h-7.3c-.2,0-.4-.2-.4-.4v-1.9c0-.2.2-.4.4-.4h7.3c.2,0,.4.2.4.4v1.9c0,.2-.2.4-.4.4Z"/>
          <path class="st1" d="M56.1,80.7v5.5c0,.2.2.4.4.4h22c.2,0,.4-.2.4-.4v-5.5c0-.2-.2-.4-.4-.4h-22c-.2,0,.4.2-.4.4ZM65.8,84.8h-7.3c-.2,0-.4-.2-.4-.4v-1.9c0-.2.2-.4.4-.4h7.3c.2,0,.4.2.4.4v1.9c0,.2-.2.4-.4.4Z"/>
        </g>
        <path class="st1" d="M103.4,31.5c-.6,0-1.2-.5-1.2-1.2C99.9,13.3,85.3,0,67.6,0s-32.4,13.3-34.6,30.4c0,.6-.6,1.1-1.2,1.2C12.6,33.2-2.2,50.5.3,70.6c2.1,17.5,17.5,30.5,35.1,30.5h0c7.8,0,14.1-6.3,14.1-14.1v-14.7c0-.2-.2-.4-.4-.4h-6.5c-.4,0-.5-.4-.3-.7l25-28.1c.2-.2.5-.2.6,0l25,28.1c.2.3,0,.7-.3.7h-5.9c-.6,0-1.1.5-1.1,1.1v14.1c0,7.7,6.3,14,14,14h0c18.2,0,33.9-13.8,35.3-31.9,1.6-19.5-12.9-36-31.7-37.6h0Z"/>
      </g>
      <g>
        <path class="st3" d="M49.5,86.6v.4c0,7.8-6.3,14.1-14.1,14.1h0c-17.7,0-33-13-35.1-30.5-1.5-12.7,3.8-24.3,12.8-31.6,1.6,22.1,16.3,40.6,36.5,47.6h0Z"/>
        <path class="st0" d="M135.1,69.2c-1.5,18.2-17.1,31.9-35.3,31.9h0c-7.7,0-14-6.3-14-14v-.4c20.1-7,34.9-25.5,36.5-47.6,8.7,7,14,18,13,30.1Z"/>
      </g>
      <path class="st2" d="M92.9,71.2c.2.3,0,.7-.3.7h-5.9c-.6,0-1.1.5-1.1,1.1v13.7c-5.7,2-11.7,3.1-18,3.1s-12.4-1.1-18-3.1v-14.3c0-.2-.2-.4-.4-.4h-6.5c-.4,0-.5-.4-.3-.7l25-28.1c.2-.2.4-.2.6,0l25,28.1h0Z"/>
    </g>
  </g>
</svg>