<?xml version="1.0" encoding="UTF-8"?>
<svg xmlns="http://www.w3.org/2000/svg" xmlns:xlink="http://www.w3.org/1999/xlink" viewBox="0 0 650 481.95">
  <defs>
    <style>
      .cls-1 {
        fill: #dfddf9;
      }

      .cls-2 {
        clip-path: url(#clippath-21);
      }

      .cls-3 {
        clip-path: url(#clippath-6);
      }

      .cls-4 {
        clip-path: url(#clippath-7);
      }

      .cls-5 {
        clip-path: url(#clippath-17);
      }

      .cls-6, .cls-7, .cls-8 {
        fill: #8a49df;
      }

      .cls-6, .cls-9 {
        opacity: .25;
      }

      .cls-10 {
        clip-path: url(#clippath-15);
      }

      .cls-11 {
        fill: #d9effc;
      }

      .cls-12 {
        fill: #8b49e0;
      }

      .cls-13 {
        clip-path: url(#clippath-18);
      }

      .cls-14 {
        clip-path: url(#clippath-4);
      }

      .cls-15 {
        fill: #ef9b9a;
      }

      .cls-16 {
        fill: #fcc249;
      }

      .cls-17, .cls-18, .cls-19 {
        fill: #e66962;
      }

      .cls-17, .cls-20 {
        opacity: .4;
      }

      .cls-21 {
        clip-path: url(#clippath-9);
      }

      .cls-22 {
        clip-path: url(#clippath-10);
      }

      .cls-23 {
        stroke: #16294c;
        stroke-width: 1.43px;
      }

      .cls-23, .cls-24, .cls-25 {
        fill: none;
        stroke-miterlimit: 10;
      }

      .cls-26 {
        fill: #fff;
      }

      .cls-24, .cls-25 {
        stroke: #fff;
        stroke-width: 1.1px;
      }

      .cls-27 {
        clip-path: url(#clippath-11);
      }

      .cls-7 {
        mix-blend-mode: screen;
        opacity: .55;
      }

      .cls-28 {
        clip-path: url(#clippath-1);
      }

      .cls-29 {
        fill: #f09c9b;
      }

      .cls-30 {
        isolation: isolate;
      }

      .cls-31 {
        clip-path: url(#clippath-5);
      }

      .cls-32 {
        clip-path: url(#clippath-20);
      }

      .cls-33 {
        clip-path: url(#clippath-8);
      }

      .cls-20, .cls-34 {
        fill: #0f3568;
      }

      .cls-35 {
        clip-path: url(#clippath-3);
      }

      .cls-36 {
        fill: #fbc149;
      }

      .cls-37 {
        clip-path: url(#clippath-12);
      }

      .cls-38 {
        clip-path: url(#clippath-14);
      }

      .cls-39 {
        opacity: .58;
      }

      .cls-39, .cls-9 {
        fill: #b8d9f9;
      }

      .cls-40 {
        fill: #0f3568;
      }

      .cls-41 {
        clip-path: url(#clippath-19);
      }

      .cls-42 {
        fill: #82dcf7;
      }

      .cls-19 {
        opacity: .75;
      }

      .cls-43 {
        fill: #efeefc;
      }

      .cls-44 {
        fill: #8ab6e3;
      }

      .cls-45 {
        clip-path: url(#clippath-16);
      }

      .cls-46 {
        clip-path: url(#clippath-2);
      }

      .cls-47 {
        fill: #e76962;
      }

      .cls-48 {
        clip-path: url(#clippath-13);
      }

      .cls-49 {
        fill: #c5defb;
        opacity: .19;
      }

      .cls-50 {
        clip-path: url(#clippath);
      }

      .cls-51 {
        mix-blend-mode: multiply;
        opacity: .47;
      }

      .cls-25 {
        stroke-linecap: round;
      }

      .cls-52 {
        fill: #5d0d0a;
      }
    </style>
    <clipPath id="clippath">
      <path class="cls-44" d="M447.32,116.56c36.12-23.6,7.25-54.69-24.42-57.86-31.67-3.17-4.69-31.58-19.93-41.3-15.25-9.72-26.28,14.61-39.92-5.66-13.64-20.27-52.28-14.54-40.05,19.25,12.23,33.8,62.83,8.03,51.94,40.8-10.89,32.77,29.09,73.07,72.39,44.77Z"/>
    </clipPath>
    <clipPath id="clippath-1">
      <path class="cls-1" d="M189.62,341.21h408.23c19.01,0,33.47-17.05,30.38-35.8l-3.36-20.35H162.34l-3.16,20.72c-2.84,18.64,11.58,35.43,30.44,35.43Z"/>
    </clipPath>
    <clipPath id="clippath-2">
      <path class="cls-42" d="M173.47,285.06h440.26l-28.66-199.27c-1.03-7.19-7.19-12.53-14.46-12.53H216.59c-7.26,0-13.42,5.34-14.46,12.53l-28.66,199.27Z"/>
    </clipPath>
    <clipPath id="clippath-3">
      <path class="cls-43" d="M268.67,241.46h305.1c5.15,0,9.11-4.56,8.37-9.66l-20.03-139.25c-.6-4.16-4.17-7.25-8.37-7.25h-265.04c-4.21,0-7.77,3.09-8.37,7.25l-20.03,139.25c-.73,5.1,3.22,9.66,8.37,9.66Z"/>
    </clipPath>
    <clipPath id="clippath-4">
      <path class="cls-34" d="M502.73,130.49l20.59,16.48,80.88-107.37c3.63-4.82,3.42-11.11-.48-14.23h0c-3.9-3.12-10.08-1.94-13.99,2.66l-87.01,102.47Z"/>
    </clipPath>
    <clipPath id="clippath-5">
      <path class="cls-12" d="M511.39,167.92c-10.53,13.16-37.1-8.1-26.57-21.26l57.47-67.16c7.81-9.76,29.82,7.86,22.02,17.62l-52.91,70.8Z"/>
    </clipPath>
    <clipPath id="clippath-6">
      <path class="cls-34" d="M482.74,182.87c-3.29,1.94-7.82-1.18-6.23-4.99l8.31-28.12c8.51-10.64,32.05,8.19,23.54,18.83l-25.61,14.28Z"/>
    </clipPath>
    <clipPath id="clippath-7">
      <path class="cls-15" d="M258.51,110.95s21.47,8.96,39.35,36.92c10.47,16.37,30.79,27.79,38.72,30.26,7.93,2.47,3.51,4.98.75,4.58-4-.58-6.93-1.41-7.85-1.7-.08-.02-.13.07-.07.13,1.27,1.19,7.33,6.78,10.41,8.72,2.56,1.61.02,4.75-4.92,2.15-2.8-1.47-9.54-8.91-12.27-8.94-2.3-.03,7.97,11.69,10.36,14.66,2.65,3.27-1.2,4.25-4.79,2.94-3.59-1.31-6.38-15.11-12.64-16.69-1.94-.49,5.15,15.72,5.71,16.83,1.86,3.68-4.02,6.03-6.25.14-.68-1.81-5.43-18.07-6.92-18.27-1.49-.19-.75,12.37-5.95,10.89-5.2-1.49.59-8.57.26-12.73-.74-9.3-65.33-51.33-77.85-51.98,0,0,2.82-8.81,33.95-17.91Z"/>
    </clipPath>
    <clipPath id="clippath-8">
      <path class="cls-1" d="M281.47,247.66s17.42-11.95,25.52-5.76c8.1,6.19,38.53,74.65,13.6,82.75-24.94,8.1-18.86-32.81-25.34-44.16-6.48-11.34-13.77-32.83-13.77-32.83Z"/>
    </clipPath>
    <clipPath id="clippath-9">
      <polygon class="cls-29" points="80.25 346.62 51.67 414.54 71.61 454.06 143.76 360.51 80.25 346.62"/>
    </clipPath>
    <clipPath id="clippath-10">
      <path class="cls-12" d="M230.54,180.67c13.1,19.13,30.57,64.28,30.57,64.28l15.2-7.92s26.92,24.39,20.59,57.65c0,0-41.92,49.27-55.54,49.9-13.62.63-44.65-80-44.65-80,0,0-55.33,135.25-72.12,152.36,0,0,13.97-32.35-44.34-70.32,0,0,65.09-85.7,71.51-119.27,6.42-33.57,78.78-46.68,78.78-46.68Z"/>
    </clipPath>
    <clipPath id="clippath-11">
      <path class="cls-40" d="M65.18,481.91c25.55-1.08,19.44-55.81,12.24-72.74s-15.72-13.78-25.76-31.69c-22.7-40.5-27.91-34.92-45.19-28.18-17.28,6.74-.71,135.12,58.71,132.6Z"/>
    </clipPath>
    <clipPath id="clippath-12">
      <path class="cls-16" d="M85.97,161.47s27.66-44.03,77.77-61.83c50.1-17.8,94.77,11.31,94.77,11.31,0,0-26.11,37.05-17.47,45.06l-22.41-12.46c6.8,9.21,12.03,22.14,24.7,34.47,7.96,7.75-12.26,37.29-42.24,40.57-29.98,3.28-69.35,8.32-72.73,23.91,0,0,16.96-52.61-2.15-64.64-35.29-22.22-40.25-16.39-40.25-16.39Z"/>
    </clipPath>
    <clipPath id="clippath-13">
      <path class="cls-15" d="M127.53,135.2s19.97,83.44-29.8,90.68c-35.1,5.1-5.62-64.7-5.62-64.7,7.4,1.62,12.13,4.26,12.13,4.26l23.29-30.23Z"/>
    </clipPath>
    <clipPath id="clippath-14">
      <rect class="cls-18" x="102.54" y="76.16" width="2.43" height="35.78" transform="translate(213.82 180.62) rotate(175.99)"/>
    </clipPath>
    <clipPath id="clippath-15">
      <path class="cls-1" d="M141.46,16.38s-6.94-6.38-6.57-7.14c.36-.77,9.6.51,9.6.51l-3.03,6.63Z"/>
    </clipPath>
    <clipPath id="clippath-16">
      <path class="cls-36" d="M201.19,36.35l-3.19,6.77-55.97-26.38c-3.42-1.61-.23-8.38,3.19-6.77l55.97,26.38Z"/>
    </clipPath>
    <clipPath id="clippath-17">
      <path class="cls-1" d="M200.61,35.41l-3.41-1.74s0-.76-1.45-1.44c-1.89-.89-6.3,8.39-4.38,9.29,1.45.68,2.04.21,2.04.21l3.51,1.53c.63,2.49,3.29,1.48,3.29,1.48-.84-.39-.34-2.48.58-4.4.89-1.93,2.23-3.74,3.07-3.34,0,0-.92-2.69-3.24-1.59Z"/>
    </clipPath>
    <clipPath id="clippath-18">
      <path class="cls-15" d="M169.98,73.72s.84,21.64,4.82,31.59c2.52,8.42,1.04,12.92-4.25,13.7-5.82.86-10.82-4.14-10.43-10.01.31-4.65-1.46-13.14-2.57-17.46,5.23-3.92,10.14-8.79,12.43-17.82Z"/>
    </clipPath>
    <clipPath id="clippath-19">
      <path class="cls-52" d="M144.77,81.61c-2.41,2.57,5.1,8.67,9,7.45,3.9-1.22,7.11-12.05,4.45-13.73-1.02-.64-12.02,4.75-13.45,6.28Z"/>
    </clipPath>
    <clipPath id="clippath-20">
      <path class="cls-1" d="M136.8,68.11c1.24-3.26,5.19-4.4,7.37-1.76.99,1.2,1.05,2.94.29,4.3-.78,1.39-2.13,3-4.19,2.99-2.75-.01-4.45-2.96-3.47-5.53Z"/>
    </clipPath>
    <clipPath id="clippath-21">
      <path class="cls-1" d="M152.49,63.63c1.24-3.26,5.19-4.4,7.37-1.76.99,1.2,1.05,2.94.29,4.3-.78,1.39-2.13,3-4.19,2.99-2.75-.01-4.45-2.96-3.47-5.53Z"/>
    </clipPath>
  </defs>
  <g class="cls-30">
    <g id="Layer_2" data-name="Layer 2">
      <g id="Layer_1-2" data-name="Layer 1">
        <g>
          <g>
            <path class="cls-44" d="M447.32,116.56c36.12-23.6,7.25-54.69-24.42-57.86-31.67-3.17-4.69-31.58-19.93-41.3-15.25-9.72-26.28,14.61-39.92-5.66-13.64-20.27-52.28-14.54-40.05,19.25,12.23,33.8,62.83,8.03,51.94,40.8-10.89,32.77,29.09,73.07,72.39,44.77Z"/>
            <g class="cls-50">
              <g class="cls-51">
                <path class="cls-44" d="M480.54,103.26c-33.62,18.01-56.35,8.61-66.91,1.4-14.53-9.92-23.44-27.25-21.66-42.13,1.69-14.1.93-21.39-2.64-25.15-4.37-4.61-13.12-4.04-27.62-3.09l-1.54.1c-10.15.66-17.54-1.44-22.58-6.41-8.7-8.58-9.09-25-8.33-39.92l1,.05c-.75,14.7-.39,30.85,8.03,39.15,4.83,4.76,11.96,6.77,21.81,6.13l1.54-.1c14.79-.97,23.72-1.55,28.41,3.4,3.79,4,4.63,11.52,2.9,25.96-1.74,14.53,6.99,31.46,21.23,41.18,17.91,12.23,41.3,11.71,65.87-1.45l.47.88Z"/>
              </g>
            </g>
          </g>
          <g>
            <path class="cls-36" d="M650,193.14c-11.36,4.8-26.92,7.57-40.49,3.01l-2.37-17.5c11.99.78,26.89-2.16,39.84-7.29l3.02,21.79Z"/>
            <path class="cls-18" d="M643.13,220.43c-7.65,3.23-20.27,3.4-29.4.33l-1.6-11.78c8.07.53,18.59,2,27.3-1.46l3.7,12.92Z"/>
            <path class="cls-1" d="M268.9,433.25v13.93c0,6.78,56.66,12.28,126.56,12.28s126.56-5.5,126.56-12.28v-13.93h-253.12Z"/>
            <rect class="cls-34" x="364.7" y="333.64" width="61.51" height="103.32"/>
            <g>
              <g>
                <path class="cls-1" d="M189.62,341.21h408.23c19.01,0,33.47-17.05,30.38-35.8l-3.36-20.35H162.34l-3.16,20.72c-2.84,18.64,11.58,35.43,30.44,35.43Z"/>
                <g class="cls-28">
                  <path class="cls-39" d="M323.4,323.34s26.67-12.86,17.68-57.55c-9-44.69-45.52,2.83-45.52,2.83l27.84,54.72"/>
                </g>
              </g>
              <path class="cls-34" d="M162.34,285.06h462.52l-28.94-201.18c-1.76-12.24-12.25-21.33-24.62-21.33H215.89c-12.37,0-22.85,9.09-24.62,21.33l-28.94,201.18Z"/>
              <g>
                <path class="cls-42" d="M173.47,285.06h440.26l-28.66-199.27c-1.03-7.19-7.19-12.53-14.46-12.53H216.59c-7.26,0-13.42,5.34-14.46,12.53l-28.66,199.27Z"/>
                <g class="cls-46">
                  <rect class="cls-7" x="180.34" y="-101.41" width="69.86" height="349.33" transform="translate(114.85 -130.76) rotate(45)"/>
                  <rect class="cls-7" x="227.05" y="-20.22" width="40.2" height="349.33" transform="translate(181.59 -129.52) rotate(45)"/>
                </g>
              </g>
              <g>
                <path class="cls-43" d="M268.67,241.46h305.1c5.15,0,9.11-4.56,8.37-9.66l-20.03-139.25c-.6-4.16-4.17-7.25-8.37-7.25h-265.04c-4.21,0-7.77,3.09-8.37,7.25l-20.03,139.25c-.73,5.1,3.22,9.66,8.37,9.66Z"/>
                <g class="cls-35">
                  <path class="cls-6" d="M258.91,241.46c56.76-65.42,80.68-111.26,158.41-40.17,77.73,71.09,26.94-144.6,188.53-48.38,161.6,96.22,19.01,188.3,19.01,188.3l-378.29-65.51,12.33-34.24"/>
                  <path class="cls-6" d="M256.09,247.07c45.53-52.48,64.72-89.25,127.07-32.22,62.35,57.02,21.61-115.99,151.23-38.81,129.62,77.18,15.25,151.04,15.25,151.04l-303.44-52.55,9.89-27.46"/>
                  <rect class="cls-9" x="256.33" y="73.26" width="323.75" height="26.18"/>
                </g>
              </g>
              <rect class="cls-34" x="167.69" y="258.84" width="449.31" height="26.22"/>
              <ellipse class="cls-36" cx="418.94" cy="134.67" rx="26.59" ry="24.24"/>
              <path class="cls-36" d="M221.97,316.53h-28.55c-2.34,0-4.24-1.9-4.24-4.24h0c0-2.34,1.9-4.24,4.24-4.24h28.55c2.34,0,4.24,1.9,4.24,4.24h0c0,2.34-1.9,4.24-4.24,4.24Z"/>
            </g>
            <ellipse class="cls-34" cx="395.46" cy="433.25" rx="126.56" ry="12.28"/>
          </g>
          <g>
            <path class="cls-34" d="M591.04,41.22h0c-2.54-2.03-2.95-5.74-.92-8.28l11.74-14.67c2.03-2.54,5.74-2.95,8.28-.92h0c2.54,2.03,2.95,5.74.92,8.28l-11.74,14.67c-2.03,2.54-5.74,2.95-8.28.92Z"/>
            <g>
              <path class="cls-34" d="M502.73,130.49l20.59,16.48,80.88-107.37c3.63-4.82,3.42-11.11-.48-14.23h0c-3.9-3.12-10.08-1.94-13.99,2.66l-87.01,102.47Z"/>
              <g class="cls-14">
                <path class="cls-49" d="M544.01,99.9l-9.23-4.68,53.37-59.34c.42-.47,1.15.11.78.63l-44.92,63.39Z"/>
              </g>
            </g>
            <g>
              <path class="cls-12" d="M511.39,167.92c-10.53,13.16-37.1-8.1-26.57-21.26l57.47-67.16c7.81-9.76,29.82,7.86,22.02,17.62l-52.91,70.8Z"/>
              <g class="cls-31">
                <path class="cls-20" d="M512.33,163.63c2.85-8.67.49-14.03-5.09-17.62l52.59-68.42,9.67,7.73-57.17,78.31Z"/>
              </g>
            </g>
            <g>
              <path class="cls-34" d="M482.74,182.87c-3.29,1.94-7.82-1.18-6.23-4.99l8.31-28.12c8.51-10.64,32.05,8.19,23.54,18.83l-25.61,14.28Z"/>
              <g class="cls-3">
                <polygon class="cls-49" points="499.1 142.29 478.61 181.79 490.04 143.25 486.76 129.9 499.1 142.29"/>
              </g>
            </g>
            <path class="cls-34" d="M474.39,187.07h0c-1.29-1.04-1.5-2.93-.47-4.22l4.69-5.86c1.04-1.29,2.93-1.5,4.22-.47h0c1.29,1.04,1.5,2.93.47,4.22l-4.69,5.86c-1.04,1.29-2.93,1.5-4.22.47Z"/>
          </g>
          <g>
            <g>
              <g>
                <path class="cls-34" d="M241.04,156.02c8.95,4.45,24.3-38.28,24.3-38.28,0,0-21.41-13.37-25.87,5.93l-5.86,19.88,1.77,8.8,5.65,3.67Z"/>
                <path class="cls-34" d="M155.08,252.71s-29.9,1.69-26.71-10.21c3.19-11.9,28.66-16.36,28.66-16.36l-1.95,26.57Z"/>
                <path class="cls-34" d="M97.47,173.99c-6.68-2.13-13.69-9.31-11.5-12.52,2.19-3.22,13.48-3.73,13.48-3.73l-1.97,16.25Z"/>
              </g>
              <g>
                <path class="cls-15" d="M258.51,110.95s21.47,8.96,39.35,36.92c10.47,16.37,30.79,27.79,38.72,30.26,7.93,2.47,3.51,4.98.75,4.58-4-.58-6.93-1.41-7.85-1.7-.08-.02-.13.07-.07.13,1.27,1.19,7.33,6.78,10.41,8.72,2.56,1.61.02,4.75-4.92,2.15-2.8-1.47-9.54-8.91-12.27-8.94-2.3-.03,7.97,11.69,10.36,14.66,2.65,3.27-1.2,4.25-4.79,2.94-3.59-1.31-6.38-15.11-12.64-16.69-1.94-.49,5.15,15.72,5.71,16.83,1.86,3.68-4.02,6.03-6.25.14-.68-1.81-5.43-18.07-6.92-18.27-1.49-.19-.75,12.37-5.95,10.89-5.2-1.49.59-8.57.26-12.73-.74-9.3-65.33-51.33-77.85-51.98,0,0,2.82-8.81,33.95-17.91Z"/>
                <g class="cls-4">
                  <path class="cls-18" d="M261.85,107.26c-9.71,19.93-1.91,38.55,16.76,41.44s23.12,29.46,5.38,32.97c-17.74,3.5-55.48-37.75-55.48-37.75l19.65-33.71,13.69-2.95"/>
                </g>
              </g>
              <g>
                <g>
                  <path class="cls-1" d="M281.47,247.66s17.42-11.95,25.52-5.76c8.1,6.19,38.53,74.65,13.6,82.75-24.94,8.1-18.86-32.81-25.34-44.16-6.48-11.34-13.77-32.83-13.77-32.83Z"/>
                  <g class="cls-33">
                    <path class="cls-34" d="M295.82,229.04s50.61,87.42,6.56,98.09c-44.05,10.67-57-52.34-57-52.34l22.87-33.56,27.58-12.19Z"/>
                  </g>
                </g>
                <path class="cls-34" d="M124.59,416.94c-13.59,18.71-29.67-24.75-29.67-24.75l28-44.63c5.14,27.18,10.44,54.52,1.67,69.37Z"/>
                <g>
                  <polygon class="cls-29" points="80.25 346.62 51.67 414.54 71.61 454.06 143.76 360.51 80.25 346.62"/>
                  <g class="cls-21">
                    <path class="cls-18" d="M92.2,355.07s23.57,40.67,23.57,68.01,31.3,30.22,37.78,28.42c6.48-1.8,29.5-63.68,29.5-63.68l-60.13-40.27-30.72,7.51"/>
                  </g>
                </g>
                <g>
                  <path class="cls-12" d="M230.54,180.67c13.1,19.13,30.57,64.28,30.57,64.28l15.2-7.92s26.92,24.39,20.59,57.65c0,0-41.92,49.27-55.54,49.9-13.62.63-44.65-80-44.65-80,0,0-55.33,135.25-72.12,152.36,0,0,13.97-32.35-44.34-70.32,0,0,65.09-85.7,71.51-119.27,6.42-33.57,78.78-46.68,78.78-46.68Z"/>
                  <g class="cls-22">
                    <path class="cls-20" d="M196.71,264.58c-12.11-19.04-31.01-6.41-31.01-6.41-26.15,14.95,18.52,39.1-4.77,51.41-42.87,22.66,31.11,67.4,56.11,80.64,25,13.24-30.05-101.25-30.05-101.25"/>
                    <path class="cls-20" d="M117.08,219.85s42.28,16.32,84.94,14.31c42.65-2.01,73.76-49.68,73.76-49.68l-25.91-27.47-153.72,35.5,20.93,27.34"/>
                  </g>
                </g>
                <g>
                  <g>
                    <path class="cls-23" d="M61.85,400.39s8.49-48.33-5.29-53.45c-13.78-5.12,5.29,53.45,5.29,53.45Z"/>
                    <path class="cls-23" d="M56.8,402.38s39.21-29.51,32.64-42.66c-6.57-13.15-32.64,42.66-32.64,42.66Z"/>
                  </g>
                  <g>
                    <path class="cls-40" d="M65.18,481.91c25.55-1.08,19.44-55.81,12.24-72.74s-15.72-13.78-25.76-31.69c-22.7-40.5-27.91-34.92-45.19-28.18-17.28,6.74-.71,135.12,58.71,132.6Z"/>
                    <g class="cls-27">
                      <path class="cls-1" d="M-1.26,350.46c13.12-21.08,43.34.39,46.57,57.94,2.59,46.2,75.27,57.62,3.08,85.68-30.6,11.89-68.28-61.27-68.28-61.27l6.82-84.5,12.2-2.56"/>
                      <path class="cls-47" d="M-7.7,357.14c13.12-21.08,43.34.39,46.57,57.94,2.59,46.2,75.27,57.62,3.08,85.68-30.6,11.89-68.28-61.27-68.28-61.27l6.82-84.5,12.2-2.56"/>
                    </g>
                  </g>
                </g>
              </g>
              <g>
                <path class="cls-16" d="M85.97,161.47s27.66-44.03,77.77-61.83c50.1-17.8,94.77,11.31,94.77,11.31,0,0-26.11,37.05-17.47,45.06l-22.41-12.46c6.8,9.21,12.03,22.14,24.7,34.47,7.96,7.75-12.26,37.29-42.24,40.57-29.98,3.28-69.35,8.32-72.73,23.91,0,0,16.96-52.61-2.15-64.64-35.29-22.22-40.25-16.39-40.25-16.39Z"/>
                <g class="cls-37">
                  <path class="cls-17" d="M218.63,143.56c-30.85-13.35-22.49-1.85-8.9,8.61,13.6,10.46-29.25,40.13,28.02,52.9,57.27,12.77,2.06-43.83,2.06-43.83l-21.18-17.68"/>
                </g>
              </g>
              <g>
                <g>
                  <path class="cls-15" d="M127.53,135.2s19.97,83.44-29.8,90.68c-35.1,5.1-5.62-64.7-5.62-64.7,7.4,1.62,12.13,4.26,12.13,4.26l23.29-30.23Z"/>
                  <g class="cls-48">
                    <path class="cls-18" d="M92.12,161.17l7.33,5.57s-6.02,10.85-5.69,30.31c0,0,4.51-23.87,10.48-31.62,5.97-7.75-12.13-4.26-12.13-4.26"/>
                  </g>
                </g>
                <g>
                  <g>
                    <g>
                      <rect class="cls-18" x="102.54" y="76.16" width="2.43" height="35.78" transform="translate(213.82 180.62) rotate(175.99)"/>
                      <g class="cls-38">
                        <rect class="cls-1" x="96" y="92.15" width="15.49" height="3.81" transform="translate(243.79 93.9) rotate(137.74)"/>
                        <rect class="cls-1" x="94.32" y="84.3" width="15.49" height="3.81" transform="translate(235.57 81.37) rotate(137.74)"/>
                        <rect class="cls-1" x="98.58" y="99.83" width="15.49" height="3.81" transform="translate(253.44 105.54) rotate(137.74)"/>
                      </g>
                    </g>
                    <polygon class="cls-1" points="114.26 183.37 133.43 178.24 125.77 112.39 88 122.5 114.26 183.37"/>
                    <rect class="cls-34" x="86.25" y="114.26" width="42.17" height="9.73" transform="translate(241.82 206.44) rotate(165.01)"/>
                    <rect class="cls-34" x="88.85" y="108.61" width="34.2" height="10.7" transform="translate(237.77 196.65) rotate(165.01)"/>
                  </g>
                  <g>
                    <path class="cls-15" d="M97.3,148.06l6.27-1.68c2.02-.54,3.22-2.62,2.68-4.64h0c-.54-2.02-2.62-3.22-4.64-2.68l-6.27,1.68c-2.02.54-3.22,2.62-2.68,4.64h0c.54,2.02,2.62,3.22,4.64,2.68Z"/>
                    <path class="cls-15" d="M99.26,155.37l10-2.68c2.02-.54,3.22-2.62,2.68-4.64h0c-.54-2.02-2.62-3.22-4.64-2.68l-10,2.68c-2.02.54-3.22,2.62-2.68,4.64h0c.54,2.02,2.62,3.22,4.64,2.68Z"/>
                    <path class="cls-15" d="M102.78,162.27l10-2.68c2.02-.54,3.22-2.62,2.68-4.64h0c-.54-2.02-2.62-3.22-4.64-2.68l-10,2.68c-2.02.54-3.22,2.62-2.68,4.64h0c.54,2.02,2.62,3.22,4.64,2.68Z"/>
                    <path class="cls-15" d="M105.77,168.38l10-2.68c2.02-.54,3.22-2.62,2.68-4.64h0c-.54-2.02-2.62-3.22-4.64-2.68l-10,2.68c-2.02.54-3.22,2.62-2.68,4.64h0c.54,2.02,2.62,3.22,4.64,2.68Z"/>
                    <path class="cls-15" d="M126.16,144.98l5.76-2.98c2.03-1.05,2.82-3.54,1.77-5.56h0c-1.05-2.03-3.54-2.82-5.56-1.77l-5.76,2.98c-2.03,1.05-2.82,3.54-1.77,5.56h0c1.05,2.03,3.54,2.82,5.56,1.77Z"/>
                  </g>
                </g>
              </g>
              <g>
                <g>
                  <g>
                    <path class="cls-1" d="M141.46,16.38s-6.94-6.38-6.57-7.14c.36-.77,9.6.51,9.6.51l-3.03,6.63Z"/>
                    <g class="cls-10">
                      <rect class="cls-34" x="132.24" y="7.67" width="8.62" height="3.98" transform="translate(69.6 129.06) rotate(-64.76)"/>
                    </g>
                  </g>
                  <path class="cls-18" d="M208.01,43.7h0c-1.01,2.14-3.56,3.05-5.69,2.05l-5.27-2.48c-2.14-1.01-3.05-3.56-2.05-5.69h0c1.01-2.14,3.56-3.05,5.69-2.05l5.27,2.48c2.14,1.01,3.05,3.56,2.05,5.69Z"/>
                  <g>
                    <path class="cls-36" d="M201.19,36.35l-3.19,6.77-55.97-26.38c-3.42-1.61-.23-8.38,3.19-6.77l55.97,26.38Z"/>
                    <g class="cls-45">
                      <rect class="cls-34" x="169.04" y="-6.84" width="2.58" height="65.54" transform="translate(74.25 168.95) rotate(-64.76)"/>
                    </g>
                  </g>
                  <g>
                    <path class="cls-1" d="M200.61,35.41l-3.41-1.74s0-.76-1.45-1.44c-1.89-.89-6.3,8.39-4.38,9.29,1.45.68,2.04.21,2.04.21l3.51,1.53c.63,2.49,3.29,1.48,3.29,1.48-.84-.39-.34-2.48.58-4.4.89-1.93,2.23-3.74,3.07-3.34,0,0-.92-2.69-3.24-1.59Z"/>
                    <g class="cls-5">
                      <path class="cls-11" d="M193.58,40.96s.26-2.79,2.68-5.44c0,0-3.24,1.26-2.68,5.44Z"/>
                    </g>
                  </g>
                </g>
                <ellipse class="cls-34" cx="170.52" cy="57.07" rx="16.38" ry="24.85" transform="translate(-9.25 61.02) rotate(-19.76)"/>
                <circle class="cls-34" cx="141.63" cy="56.37" r="16.38" transform="translate(29.01 159.1) rotate(-64.08)"/>
                <g>
                  <path class="cls-15" d="M169.98,73.72s.84,21.64,4.82,31.59c2.52,8.42,1.04,12.92-4.25,13.7-5.82.86-10.82-4.14-10.43-10.01.31-4.65-1.46-13.14-2.57-17.46,5.23-3.92,10.14-8.79,12.43-17.82Z"/>
                  <g class="cls-13">
                    <path class="cls-18" d="M168.57,78.7s5.92,19.58-12.64,27.72c-18.56,8.13-15.98-16.93-15.98-16.93l28.62-10.79"/>
                  </g>
                </g>
                <path class="cls-15" d="M154.29,32.03c-21.55,1.62-29.02,28.76-18.38,50.55,15.35,31.45,32.59.25,33.35-3.75,3.37-17.88-1.28-47.82-14.97-46.79Z"/>
                <path class="cls-34" d="M135.23,64.02s1.31-6.04,8-4.24c0,0-2.99-3.72-6.23-1.62-3.24,2.11-1.77,5.86-1.77,5.86Z"/>
                <path class="cls-34" d="M150.2,58.83s2.93-5.44,8.86-1.86c0,0-1.84-4.41-5.54-3.28-3.7,1.13-3.32,5.14-3.32,5.14Z"/>
                <g>
                  <path class="cls-52" d="M144.77,81.61c-2.41,2.57,5.1,8.67,9,7.45,3.9-1.22,7.11-12.05,4.45-13.73-1.02-.64-12.02,4.75-13.45,6.28Z"/>
                  <g class="cls-41">
                    <path class="cls-1" d="M144.07,81.77s4.24.19,7.11-1.63c2.88-1.82,3.86-6.51,3.86-6.51,0,0-8.76,3.68-10.97,8.14Z"/>
                    <path class="cls-18" d="M148.25,89.51s5.42,2.16,8.3.33c2.88-1.82,2.67-8.47,2.67-8.47,0,0-5.09.36-6.53,3.6-2.96-.39-4.44,4.53-4.44,4.53Z"/>
                  </g>
                </g>
                <path class="cls-18" d="M146.6,75.55c.16.42,1.06.46,2,.09.94-.37,1.57-1.01,1.4-1.43-.16-.42-1.06-.46-2-.09-.94.37-1.57,1.01-1.4,1.43Z"/>
                <path class="cls-15" d="M169.95,61.52s1.76-8.01,8.86-3.93c6.33,3.64-.32,17.93-9.01,17.41l.15-13.48Z"/>
                <path class="cls-19" d="M170.27,73.26c5.54.33,9.78-8.78,5.74-11.1-4.53-2.6-5.65,2.5-5.65,2.5l-.1,8.6Z"/>
                <g>
                  <g>
                    <path class="cls-1" d="M136.8,68.11c1.24-3.26,5.19-4.4,7.37-1.76.99,1.2,1.05,2.94.29,4.3-.78,1.39-2.13,3-4.19,2.99-2.75-.01-4.45-2.96-3.47-5.53Z"/>
                    <g class="cls-32">
                      <path class="cls-34" d="M145.46,69.79c-.19,1.77-1.78,3.04-3.55,2.85s-3.04-1.78-2.85-3.55,1.78-3.04,3.55-2.85c1.77.19,3.04,1.78,2.85,3.55Z"/>
                    </g>
                  </g>
                  <path class="cls-1" d="M141.57,69.72c-.05.48-.93.77-1.95.66-1.03-.11-1.82-.59-1.76-1.07.05-.48.93-.77,1.95-.66,1.03.11,1.82.59,1.76,1.07Z"/>
                  <path class="cls-34" d="M136.59,70.57c-1.87-3.23,2.37-7.14,5.63-5.76,1.09.39,1.9,1.24,2.37,2.18-1.52-1.3-3.47-1.91-5.28-1.02-1.72.82-2.98,2.57-2.72,4.6h0Z"/>
                </g>
                <line class="cls-25" x1="166.29" y1="60.97" x2="170.66" y2="61.63"/>
                <g>
                  <ellipse class="cls-24" cx="138.88" cy="67.19" rx="7.45" ry="10.6" transform="translate(-9.01 23.24) rotate(-9.26)"/>
                  <path class="cls-24" d="M166.29,60.97c.94,5.78-1.97,11.06-6.51,11.8-4.54.74-8.98-3.34-9.92-9.12-.94-5.78,1.97-11.06,6.51-11.8,4.54-.74,8.98,3.34,9.92,9.12Z"/>
                  <path class="cls-24" d="M146.37,69.57s1.37-4.76,5.28-1.11"/>
                </g>
                <g>
                  <g>
                    <path class="cls-1" d="M152.49,63.63c1.24-3.26,5.19-4.4,7.37-1.76.99,1.2,1.05,2.94.29,4.3-.78,1.39-2.13,3-4.19,2.99-2.75-.01-4.45-2.96-3.47-5.53Z"/>
                    <g class="cls-2">
                      <path class="cls-34" d="M161.15,65.3c-.19,1.77-1.78,3.04-3.55,2.85-1.77-.19-3.04-1.78-2.85-3.55.19-1.77,1.78-3.04,3.55-2.85,1.77.19,3.04,1.78,2.85,3.55Z"/>
                    </g>
                  </g>
                  <path class="cls-1" d="M157.26,65.24c-.05.48-.93.77-1.95.66-1.03-.11-1.82-.59-1.76-1.07s.93-.77,1.95-.66c1.03.11,1.82.59,1.76,1.07Z"/>
                  <path class="cls-34" d="M152.28,66.09c-1.87-3.23,2.37-7.14,5.63-5.76,1.09.39,1.9,1.24,2.37,2.18-1.52-1.3-3.47-1.91-5.28-1.02-1.72.82-2.98,2.57-2.72,4.6h0Z"/>
                </g>
                <path class="cls-34" d="M166.3,3.33c-20.15,5.85-14.89,25.79-14.56,26.68-34.81-6.01-21.57,10.75-20.17,14.64,1.4,3.9,9.89,4.41,18.96,1.15,1.78-.64,3.45-1.38,4.98-2.18.05.66.19,1.33.42,1.98,1.43,3.99,5.83,6.06,9.82,4.63,3.11-1.12,5.05-4.04,5.07-7.16,1.32-.02,2.66-.17,4.01-.46,10.85-2.36,17.73-13.06,15.38-23.91-2.36-10.85-13.25-18.47-23.91-15.38Z"/>
              </g>
              <g>
                <path class="cls-1" d="M161.07,413.98s40.98,6.62,54.37-27.14c8.33-20.99,71.6,4.07,58.58-23.82-13.02-27.89-39.01-3.89-46.92,8.67-7.9,12.55-34.64-.73-41.61,19.26-6.97,19.99-24.42,23.04-24.42,23.04Z"/>
                <path class="cls-1" d="M182.93,373.57s18-5.08,22.31-8.03c4.31-2.94,6.38-7.42,4.62-10-1.76-2.58-6.68-2.28-10.99.66-4.31,2.94-15.94,17.37-15.94,17.37Z"/>
                <path class="cls-1" d="M228.76,414.53s18.66,1.21,23.71-.13c5.05-1.34,8.49-4.87,7.69-7.88-.8-3.02-5.54-4.38-10.58-3.05-5.05,1.34-20.82,11.06-20.82,11.06Z"/>
              </g>
            </g>
            <g>
              <path class="cls-8" d="M187.33,145.22c-2.7-10.1-13.41-15.92-23.47-12.46-8.44,2.9-13.56,11.71-11.91,20.48,1.22,6.47,5.65,11.4,11.24,13.58,3.38,1.32,5.88,4.24,6.82,7.75h0c.46,1.71,2.21,2.72,3.92,2.26l5.73-1.54c1.71-.46,2.72-2.21,2.26-3.91h0c-.96-3.59-.09-7.39,2.19-10.32,3.37-4.33,4.74-10.13,3.21-15.84Z"/>
              <rect class="cls-1" x="168.49" y="169.03" width="16.43" height="13.38" rx="1.42" ry="1.42" transform="translate(-39.43 51.67) rotate(-14.99)"/>
              <path class="cls-1" d="M167.93,174.8l15.92-4.26c1.04-.28,1.65-1.34,1.38-2.38h0c-.28-1.04-1.34-1.65-2.38-1.38l-15.92,4.26c-1.04.28-1.65,1.34-1.38,2.38h0c.28,1.04,1.34,1.65,2.38,1.38Z"/>
              <rect class="cls-1" x="167.27" y="173.98" width="18.81" height="3.19" rx="1.53" ry="1.53" transform="translate(-39.39 51.66) rotate(-14.99)"/>
              <rect class="cls-1" x="168.9" y="179.05" width="18.26" height="3.19" rx="1.51" ry="1.51" transform="translate(-40.66 52.18) rotate(-14.99)"/>
              <path class="cls-26" d="M177.28,185.91l4.04-1.08c2.23-.6,3.55-2.88,2.95-5.11h0l-12.09,3.24h0c.6,2.23,2.88,3.55,5.11,2.95Z"/>
              <polygon class="cls-36" points="171.83 135.03 171.01 148.79 178.29 146.84 170.17 165.5 170.57 152.87 163.07 154.87 171.83 135.03"/>
            </g>
          </g>
        </g>
      </g>
    </g>
  </g>
</svg>